<svg class="icon" viewBox="0 0 1024 1024" version="1.1" xmlns="http://www.w3.org/2000/svg" width="50" height="50">
  <path
    d="M294.442667 342.101333c-77.824 60.586667-119.381333 158.464-104.490667 257.237334a1.237333 1.237333 0 0 1-0.512 1.28l-4.778667 3.285333c-0.554667 0.426667-0.896 0.256-1.066666-0.426667-17.578667-72.874667-14.677333-143.872 8.661333-212.906666 38.186667-113.066667 127.317333-205.056 241.152-242.218667 99.84-32.64 197.418667-26.026667 292.736 19.797333a1.109333 1.109333 0 0 1 0.512 1.493334c-76.629333 152.106667-187.946667 281.6-328.533333 377.770666a997.376 997.376 0 0 1-278.272 132.949334c-0.298667 0.085333-0.469333 0.085333-0.597334 0.042666-0.213333-0.085333-0.213333-0.128 0-0.256a998.4 998.4 0 0 0 373.888-349.866666c7.552-12.074667 8.021333-26.026667-2.304-36.693334a31.744 31.744 0 0 0-23.637333-9.301333C402.346667 283.733333 344.746667 302.933333 294.442667 342.101333z"
    fill="#80B746"/>
  <path
    d="M709.376 625.066667c-0.853333-19.328-22.229333-31.872-40.234667-23.125334-175.488 85.632-361.216 125.269333-557.141333 118.997334a479.786667 479.786667 0 0 1-26.666667-1.706667v-0.042667l0.128-0.042666a1167.104 1167.104 0 0 0 444.458667-171.776c1.536-0.981333 3.84-1.792 5.674667-2.986667a1174.912 1174.912 0 0 0 303.872-288.426667c0.384-0.426667 0.768-0.469333 1.152-0.042666 63.146667 68.394667 98.816 165.546667 98.048 258.133333a385.706667 385.706667 0 0 1-237.44 353.194667c-98.389333 41.045333-207.36 37.248-303.616-5.589334-58.496-26.026667-109.354667-67.754667-148.224-118.826666a0.512 0.512 0 0 1-0.042667-0.554667c0-0.085333 0.085333-0.128 0.170667-0.213333a0.597333 0.597333 0 0 1 0.256-0.085334l16.085333-1.408a1.706667 1.706667 0 0 1 1.365333 0.426667c138.88 126.549333 366.677333 83.328 437.333334-95.232 3.413333-8.661333 5.034667-15.573333 4.821333-20.736z"
    fill="#2253A0"/>
</svg>
